<svg width="26" height="24" viewBox="0 0 26 24" fill="none" xmlns="http://www.w3.org/2000/svg">
<path fill-rule="evenodd" clip-rule="evenodd" d="M2.89606 4.54C2.47928 4.15 2.47928 3.52 2.89606 3.13C3.31284 2.74 3.99678 2.74 4.41355 3.13L21.8433 19.46C22.2601 19.85 22.2601 20.48 21.8433 20.87C21.4266 21.26 20.7533 21.26 20.3365 20.87L17.4298 18.15C15.9978 18.67 14.4482 18.97 12.8239 18.97C7.4806 18.97 2.91743 15.86 1.06866 11.47C1.89152 9.5 3.27009 7.8 5.00131 6.51L2.89606 4.54ZM18.1672 11.47C18.1672 8.71 15.7734 6.47 12.8239 6.47C12.2789 6.47 11.7552 6.57 11.253 6.71L8.93397 4.54C10.1629 4.17 11.4667 3.97 12.8239 3.97C18.1672 3.97 22.7303 7.08 24.5791 11.46C23.8417 13.22 22.6662 14.76 21.1808 15.99L17.9107 12.93C18.0603 12.47 18.1672 11.98 18.1672 11.47ZM12.8239 16.47C9.87439 16.47 7.4806 14.23 7.4806 11.47C7.4806 10.7 7.67296 9.97 8.00424 9.33L9.68203 10.9C9.64997 11.08 9.61791 11.27 9.61791 11.47C9.61791 13.13 11.0499 14.47 12.8239 14.47C13.0376 14.47 13.23 14.44 13.433 14.4L15.1108 15.97C14.4162 16.29 13.6467 16.47 12.8239 16.47ZM15.9978 11.14C15.8375 9.74 14.662 8.65 13.1765 8.5L15.9978 11.14Z" fill="#253D7F"/>
</svg>
